<svg id="Layer_1" data-name="Layer 1" xmlns="http://www.w3.org/2000/svg" viewBox="0 0 49.09 49.09"><defs><style>.cls-1{fill:#f71735;}</style></defs><path class="cls-1" d="M48.63,23.74h0a1,1,0,0,0-1,1s0,.54,0,.75c0,.74-.08,1.52-.18,2.33A95.63,95.63,0,0,1,44.84,41c-.47,1.69-.89,3-1.16,3.83-.12.37-.48,1.38-.48,1.38a3.58,3.58,0,0,1-.56,1.1.87.87,0,0,1-.27.22.56.56,0,0,1-.29.07H30.72a.73.73,0,0,1-.33-.06A.9.9,0,0,1,30,47.2a10.32,10.32,0,0,1-.46-1.07,89.43,89.43,0,0,1-4.24-18.35,24.25,24.25,0,0,1-.2-3,12,12,0,0,1,1.2-5.66,5.67,5.67,0,0,1,2-2.16,7.48,7.48,0,0,0,1.85-1.54,6.9,6.9,0,0,0,1.26-2.09,10.44,10.44,0,0,0,.66-3.72A5.9,5.9,0,0,0,31,6.2H36.4a1,1,0,1,0,0-1.92H29a9,9,0,0,0-1.1-.64.67.67,0,0,1,.29-1.28H44.64a.68.68,0,0,1,.67.67.69.69,0,0,1-.38.61A8.67,8.67,0,0,0,42.3,5.59a6,6,0,0,0-1.59,4.06,10.44,10.44,0,0,0,.66,3.72,6.9,6.9,0,0,0,1.26,2.09A7.48,7.48,0,0,0,44.48,17a5.59,5.59,0,0,1,.71.52.92.92,0,0,0,.63.24.93.93,0,0,0,.72-.32,1,1,0,0,0-.08-1.35,6.22,6.22,0,0,0-1-.73,5.45,5.45,0,0,1-2.3-2.67,8.67,8.67,0,0,1-.53-3,4,4,0,0,1,1.1-2.78,7.23,7.23,0,0,1,2.06-1.52,2.6,2.6,0,0,0,1.05-.95,2.59,2.59,0,0,0-.37-3.2A2.56,2.56,0,0,0,44.64.45H28.16A2.58,2.58,0,0,0,25.57,3,2.63,2.63,0,0,0,26,4.4,2.6,2.6,0,0,0,27,5.35a7.23,7.23,0,0,1,2.06,1.52,4,4,0,0,1,1.1,2.78,8.45,8.45,0,0,1-.54,3,5.38,5.38,0,0,1-2.29,2.67,7.42,7.42,0,0,0-2.7,2.88,9.82,9.82,0,0,0-.58,1.27c-.75-.43-1-.78-1-1.33,0-.19,0-.63,1-.9a3,3,0,0,0-.72-5.81H12.94a2.95,2.95,0,0,0-.72,5.81c1,.27,1,.71,1,.9,0,.84-.63,1.2-2.6,2.11-.76.35-1.62.75-2.56,1.27A14.12,14.12,0,0,0,.5,34.2c0,4.57,3,8.27,5.74,10.2a6.2,6.2,0,0,1,2.61,4.3,1,1,0,0,0,1,.84H26.48a1,1,0,0,0,1-.84,5.89,5.89,0,0,1,.43-1.61,4.51,4.51,0,0,0,.85,1.56,2.58,2.58,0,0,0,.87.65,2.66,2.66,0,0,0,1.13.24H42.09a2.55,2.55,0,0,0,1.16-.28,3,3,0,0,0,1.15-1.11,5.94,5.94,0,0,0,.6-1.27c.09-.22.84-2.26,1.73-5.51.53-1.93,1-3.91,1.41-5.91.52-2.48.93-5,1.24-7.44.11-.9.18-1.77.2-2.6,0-.2,0-.69,0-.73a1,1,0,0,0-1-1Zm-23,23.88H10.6a8.07,8.07,0,0,0-.72-1.92h8.26a1,1,0,1,0,0-1.92H8.48a8.77,8.77,0,0,0-1.14-1C5,41.17,2.42,38,2.42,34.2a12.28,12.28,0,0,1,6.6-11c.88-.49,1.71-.87,2.43-1.21,2-.92,3.72-1.71,3.72-3.85a2.72,2.72,0,0,0-.14-.86h1.68a1,1,0,0,0,0-1.92H12.63a1,1,0,0,1-.72-1,1,1,0,0,1,1-1H23.35a1,1,0,0,1,.23,2,2.88,2.88,0,0,0-2.46,2.76c0,1.65,1,2.5,2.4,3.22a17.39,17.39,0,0,0-.31,3.42,26.13,26.13,0,0,0,.21,3.2c.3,2.43.71,4.91,1.22,7.37.41,2,.88,4,1.4,5.88.37,1.37.72,2.51,1,3.41A7.93,7.93,0,0,0,25.68,47.62Z" transform="translate(-0.5 -0.45)"/><circle class="cls-1" cx="47.54" cy="19.99" r="0.96"/></svg>