<svg id="Layer_1" data-name="Layer 1" xmlns="http://www.w3.org/2000/svg" viewBox="0 0 49.84 49.69"><defs><style>.cls-1{fill:#2d3fff;}</style></defs><path class="cls-1" d="M49.06,36.61a37.37,37.37,0,0,0-5.89.08V35.63a2.39,2.39,0,0,0,1.35-1.09,2.34,2.34,0,0,0,0-2.37,18.91,18.91,0,0,0-1.16-1.7,1.32,1.32,0,0,0-2,0,19.59,19.59,0,0,0-1.16,1.7,2.34,2.34,0,0,0,0,2.37,2.39,2.39,0,0,0,1.35,1.09v1.24a28.8,28.8,0,0,0-11.22,3.72A35.21,35.21,0,0,1,22.09,38a28.22,28.22,0,0,0,5.06-2.55l.08-.05.26-.16c11.74-7.65,21-6.92,21.4-6.88A.83.83,0,1,0,49,26.72a31.1,31.1,0,0,0-11.67,1.87v-2A4,4,0,0,0,40,24.67a4.5,4.5,0,0,0,.12-4.41,39.82,39.82,0,0,0-2.23-3.64,1.63,1.63,0,0,0-2.7,0A35.83,35.83,0,0,0,33,20.26a4.47,4.47,0,0,0,.11,4.41,4.06,4.06,0,0,0,2.64,1.91v2.61c-1.12.42-2.27.91-3.47,1.49a6.63,6.63,0,0,0-11.54.37,46.6,46.6,0,0,0-5.76-2.61V26.2a3.3,3.3,0,0,0,1.9-1.47A4,4,0,0,0,17,20.87a30.31,30.31,0,0,0-1.7-3,1.42,1.42,0,0,0-2.42,0,30.22,30.22,0,0,0-1.69,3,4,4,0,0,0,.18,3.86,3.31,3.31,0,0,0,1.89,1.47v1.65a44.63,44.63,0,0,0-5.81-1.5v-.92a2.42,2.42,0,0,0,1.22-1,3,3,0,0,0,.14-2.84,22.35,22.35,0,0,0-1.15-2,1.29,1.29,0,0,0-1-.55,1.27,1.27,0,0,0-1,.55,22.35,22.35,0,0,0-1.15,2,2.9,2.9,0,0,0,.14,2.84,2.42,2.42,0,0,0,1.22,1v.66a25.94,25.94,0,0,0-5-.24.81.81,0,0,0-.69.46.82.82,0,0,0,.06.83.82.82,0,0,0,.75.36c.93-.07,9.4-.48,20.23,5.69a29.39,29.39,0,0,0,3.62,1.74,26.31,26.31,0,0,1-4.32,1.89c-.85-1.43-1.72-2.7-2.35-3.57a1.87,1.87,0,0,0-3,0c-.22.3-.47.66-.74,1A35.07,35.07,0,0,0,.74,32.47.85.85,0,0,0,.06,33a.83.83,0,0,0,.07.83.86.86,0,0,0,.76.35,34,34,0,0,1,12.51,1.6c-.38.59-.77,1.24-1.14,1.9a5,5,0,0,0,.06,5,4.91,4.91,0,0,0,3.49,2.38V47.5a31.82,31.82,0,0,1-6.45.68l-8.54,0a.83.83,0,1,0,0,1.65l8.54,0A34,34,0,0,0,16.6,49h0a.81.81,0,0,0,.37-.09,31.25,31.25,0,0,0,7.65-2.87,54.1,54.1,0,0,0,5.43-3.38c.26-.19.53-.36.8-.53,7.43-4.76,17.91-3.9,18-3.89a.83.83,0,0,0,.9-.76A.82.82,0,0,0,49.06,36.61ZM34.49,23.82A2.79,2.79,0,0,1,34.41,21c.74-1.39,1.57-2.66,2.1-3.48A36.38,36.38,0,0,1,38.64,21a2.79,2.79,0,0,1-.07,2.78,2.33,2.33,0,0,1-4.08,0ZM7.27,23.55a.78.78,0,0,1-.64.4.78.78,0,0,1-.64-.4,1.3,1.3,0,0,1-.06-1.24c.23-.46.48-.9.7-1.27.22.37.47.81.7,1.27A1.3,1.3,0,0,1,7.27,23.55Zm5.52.31a2.36,2.36,0,0,1-.11-2.26c.48-1,1-1.87,1.42-2.53.41.66.94,1.56,1.42,2.53a2.33,2.33,0,0,1-.1,2.26,1.48,1.48,0,0,1-1.32.79A1.47,1.47,0,0,1,12.79,23.86Zm9.36,8a5,5,0,0,1,8.59-.41c-1.34.7-2.71,1.49-4.13,2.41A27,27,0,0,1,22.15,31.84ZM16.6,43.47a3.29,3.29,0,0,1-2.85-1.63h0a3.39,3.39,0,0,1,0-3.4,45.19,45.19,0,0,1,2.71-4.22.21.21,0,0,1,.18-.09.21.21,0,0,1,.17.09,46.39,46.39,0,0,1,2.71,4.21,3.41,3.41,0,0,1,0,3.41A3.29,3.29,0,0,1,16.6,43.47Zm7.28,1.14a29.4,29.4,0,0,1-6.41,2.5V45.05a4.92,4.92,0,0,0,3.4-2.37,5.09,5.09,0,0,0,.68-3.1,38,38,0,0,0,6.79,2.3A49.72,49.72,0,0,1,23.88,44.61ZM42.34,34.1a.91.91,0,0,1-.74-.38.7.7,0,0,1,0-.7c.24-.41.5-.79.73-1.11.23.32.49.7.73,1.11a.68.68,0,0,1,0,.7A.91.91,0,0,1,42.34,34.1Z" transform="translate(0.02 -0.17)"/><path class="cls-1" d="M12.86,13.42H15a2.9,2.9,0,0,0,2.86,2.49h7.48a2.9,2.9,0,0,0,.33-5.78A4.15,4.15,0,0,0,21.58,6.8,4,4,0,0,0,20.45,7a4.14,4.14,0,0,0-7.93.67,2.9,2.9,0,0,0,.34,5.78Zm8.72-5a2.5,2.5,0,0,1,2.49,2.49.83.83,0,0,0,.83.83h.42a1.24,1.24,0,0,1,.88,2.12,1.27,1.27,0,0,1-.88.36H17.84a1.24,1.24,0,1,1,0-2.48h.42a.84.84,0,0,0,.83-.83A2.49,2.49,0,0,1,21.58,8.45ZM12,9.64a1.25,1.25,0,0,1,.88-.36h.41a.83.83,0,0,0,.83-.83A2.49,2.49,0,0,1,19,7.72a4.16,4.16,0,0,0-1.46,2.41,2.84,2.84,0,0,0-2.29,1.64H12.86a1.25,1.25,0,0,1-1.25-1.25A1.23,1.23,0,0,1,12,9.64Z" transform="translate(0.02 -0.17)"/><path class="cls-1" d="M34.45,9.28h7.48a2.9,2.9,0,0,0,.33-5.78,4.16,4.16,0,0,0-8.15,0,2.9,2.9,0,0,0,.34,5.78ZM33.57,5.5a1.25,1.25,0,0,1,.88-.36h.42a.83.83,0,0,0,.83-.83,2.49,2.49,0,0,1,5,0,.83.83,0,0,0,.83.83h.42A1.24,1.24,0,0,1,43,5.76,1.2,1.2,0,0,1,43,7a1.22,1.22,0,0,1-1.07.62H34.45a1.24,1.24,0,0,1-.88-2.12Z" transform="translate(0.02 -0.17)"/></svg>