<svg id="Layer_1" data-name="Layer 1" xmlns="http://www.w3.org/2000/svg" viewBox="0 0 49.46 49.53"><defs><style>.cls-1{fill:#2d3fff;}</style></defs><path class="cls-1" d="M26,48.85a1,1,0,0,1-1,1h0a1,1,0,1,1,1-1ZM49,20.23a33.82,33.82,0,0,1-7.84,6.39A11.75,11.75,0,0,1,37.39,39.3a12.29,12.29,0,0,1-5.09,2.51,2,2,0,0,0,1,.37l5.69.63a1,1,0,0,1,.54,1.7,22.17,22.17,0,0,1-9.83,4.83,1,1,0,1,1-.42-1.9,20.32,20.32,0,0,0,7.05-3L33,44.12a3.94,3.94,0,0,1-3.54-3.88V36.19a8.14,8.14,0,0,1-9,0v4.05A3.94,3.94,0,0,1,17,44.12l-3.25.36a20,20,0,0,0,7,3,1,1,0,1,1-.43,1.91,22.26,22.26,0,0,1-9.82-4.83,1,1,0,0,1,.54-1.7l5.69-.63a2,2,0,0,0,1.2-.57,12.23,12.23,0,0,1-5.15-3,11.81,11.81,0,0,1-3.46-10,34.53,34.53,0,0,1-8-4.83,2.91,2.91,0,0,1,1-5L12,15.55V13A12.85,12.85,0,0,1,25,.3,12.84,12.84,0,0,1,38,13V14l9.2,1.36A2.91,2.91,0,0,1,49,20.23ZM14,13v1.85a35.82,35.82,0,0,1,11.53-2.76A29.8,29.8,0,0,1,36,13.6v-.81A11,11,0,0,0,14,13ZM5.28,19.82a23.53,23.53,0,0,0,28-1.72,13.06,13.06,0,0,1,3.54-2.26c-4-1.1-6.95-2-11.2-1.83A37.7,37.7,0,0,0,14.5,16.73c-2.68.91-9.22,3.09-9.22,3.09Zm5.28,4.63A25.1,25.1,0,0,1,3.24,20.8a.55.55,0,0,0-.72.05,1,1,0,0,0,.09,1.43,32.72,32.72,0,0,0,7.14,4.39c.06-.18.81-2.22.81-2.22Zm7.94,10a22,22,0,0,1-5.62-9.43L12.5,25l-.69,1.83a9.83,9.83,0,0,0,2.38,10.44,10.19,10.19,0,0,0,4.31,2.5Zm14.39-4.89a43.33,43.33,0,0,0-.66-8.22A25.49,25.49,0,0,1,18.16,25.6a24.37,24.37,0,0,1-3.08-.19A20.23,20.23,0,0,0,21,34.1a6.14,6.14,0,0,0,8,0A20.68,20.68,0,0,0,32.89,29.59Zm6.44-2L36.64,18a16.06,16.06,0,0,0-2.63,2,42.34,42.34,0,0,1,.88,8.55v4.83a1,1,0,0,1-2,0v-.51c-.45.54-.91,1.05-1.4,1.54V40a10.18,10.18,0,0,0,4.61-2.17A9.85,9.85,0,0,0,39.33,27.6Zm7.56-10.28-3-.45a11.89,11.89,0,0,0-5.38.37l2.09,7.42a31.7,31.7,0,0,0,6.9-5.73,1,1,0,0,0-.59-1.61Z" transform="translate(-0.26 -0.3)"/></svg>