<svg id="Layer_1" data-name="Layer 1" xmlns="http://www.w3.org/2000/svg" viewBox="0 0 49.25 49.65"><defs><style>.cls-1{fill:#f71735;}</style></defs><path class="cls-1" d="M48.88,37.64H44.06v-6a.73.73,0,1,0-1.46,0V48.34H30v-22H42.6v1.79a.73.73,0,1,0,1.46,0V25.62a.73.73,0,0,0-.73-.73h-10V.91A.73.73,0,0,0,32.6.17H17.39a.73.73,0,0,0-.73.74V12H7.19a.74.74,0,0,0-.73.74V30.9H1.09a.73.73,0,0,0-.73.74V49.08a.73.73,0,0,0,.73.74H48.88a.74.74,0,0,0,.73-.74V38.38A.74.74,0,0,0,48.88,37.64ZM6.46,48.34H1.82v-16H6.46Zm15.22,0H7.93V44.25H21.68Zm0-10.55h-6.6a.74.74,0,0,0,0,1.48h6.6v3.5H7.93v-3.5h3.74a.74.74,0,0,0,0-1.48H7.93v-3.5H21.68Zm0-5H7.93v-3.5H21.68Zm0-5H7.93v-3.5H21.68Zm0-5H7.93v-3.5H21.68Zm0-5H7.93V13.45H21.68Zm6.9,7.75V48.34H23.14V12.71a.74.74,0,0,0-.73-.74h-1V10.49a.73.73,0,1,0-1.46,0V12H18.12V1.65H31.87V24.89H29.31A.73.73,0,0,0,28.58,25.62ZM48.15,48.34H44.06V39.12h4.09Z" transform="translate(-0.36 -0.17)"/><path class="cls-1" d="M29.31,16.19a.74.74,0,0,0-.73.74v2.22a.73.73,0,1,0,1.46,0V16.93A.74.74,0,0,0,29.31,16.19Z" transform="translate(-0.36 -0.17)"/><path class="cls-1" d="M25,16.19a.74.74,0,0,0-.74.74v2.22a.74.74,0,1,0,1.47,0V16.93A.74.74,0,0,0,25,16.19Z" transform="translate(-0.36 -0.17)"/><path class="cls-1" d="M29.31,9.75a.74.74,0,0,0-.73.74v2.22a.73.73,0,1,0,1.46,0V10.49A.74.74,0,0,0,29.31,9.75Z" transform="translate(-0.36 -0.17)"/><path class="cls-1" d="M25,9.75a.74.74,0,0,0-.74.74v2.22a.74.74,0,1,0,1.47,0V10.49A.74.74,0,0,0,25,9.75Z" transform="translate(-0.36 -0.17)"/><path class="cls-1" d="M20.68,3.32a.73.73,0,0,0-.73.73V6.27a.73.73,0,1,0,1.46,0V4.05A.73.73,0,0,0,20.68,3.32Z" transform="translate(-0.36 -0.17)"/><path class="cls-1" d="M29.31,3.32a.73.73,0,0,0-.73.73V6.27a.73.73,0,1,0,1.46,0V4.05A.73.73,0,0,0,29.31,3.32Z" transform="translate(-0.36 -0.17)"/><path class="cls-1" d="M25,3.32a.74.74,0,0,0-.74.73V6.27a.74.74,0,1,0,1.47,0V4.05A.73.73,0,0,0,25,3.32Z" transform="translate(-0.36 -0.17)"/><path class="cls-1" d="M28.92,22.78a.74.74,0,0,0-.28.91.72.72,0,0,0,.69.45.73.73,0,0,0,.68-.5A.74.74,0,0,0,28.92,22.78Z" transform="translate(-0.36 -0.17)"/><path class="cls-1" d="M25,22.67a.74.74,0,0,0-.74.74v2.21a.74.74,0,1,0,1.47,0V23.41A.74.74,0,0,0,25,22.67Z" transform="translate(-0.36 -0.17)"/><path class="cls-1" d="M25,42.08a.74.74,0,0,0-.74.74V45a.74.74,0,1,0,1.47,0V42.82A.74.74,0,0,0,25,42.08Z" transform="translate(-0.36 -0.17)"/><path class="cls-1" d="M25,35.61a.74.74,0,0,0-.74.74v2.22a.74.74,0,1,0,1.47,0V36.35A.74.74,0,0,0,25,35.61Z" transform="translate(-0.36 -0.17)"/><path class="cls-1" d="M25,29.14a.74.74,0,0,0-.74.74V32.1a.74.74,0,1,0,1.47,0V29.88A.74.74,0,0,0,25,29.14Z" transform="translate(-0.36 -0.17)"/><path class="cls-1" d="M40.37,41.86h-8.1a.74.74,0,0,0,0,1.48h8.1a.74.74,0,0,0,0-1.48Z" transform="translate(-0.36 -0.17)"/><path class="cls-1" d="M40.37,45.35h-8.1a.74.74,0,0,0,0,1.48h8.1a.74.74,0,0,0,0-1.48Z" transform="translate(-0.36 -0.17)"/><path class="cls-1" d="M40.37,38.36h-8.1a.74.74,0,0,0,0,1.48h8.1a.74.74,0,0,0,0-1.48Z" transform="translate(-0.36 -0.17)"/><path class="cls-1" d="M40.37,27.87h-8.1a.74.74,0,0,0,0,1.48h8.1a.74.74,0,0,0,0-1.48Z" transform="translate(-0.36 -0.17)"/><path class="cls-1" d="M40.37,34.86h-8.1a.74.74,0,0,0,0,1.48h8.1a.74.74,0,0,0,0-1.48Z" transform="translate(-0.36 -0.17)"/><path class="cls-1" d="M40.37,31.37h-8.1a.74.74,0,0,0,0,1.48h8.1a.74.74,0,0,0,0-1.48Z" transform="translate(-0.36 -0.17)"/><path class="cls-1" d="M4.14,33.55a.74.74,0,0,0-.73.74v1.93a.73.73,0,1,0,1.46,0V34.29A.74.74,0,0,0,4.14,33.55Z" transform="translate(-0.36 -0.17)"/><path class="cls-1" d="M4.14,38.66a.74.74,0,0,0-.73.74v1.92a.73.73,0,1,0,1.46,0V39.4A.73.73,0,0,0,4.14,38.66Z" transform="translate(-0.36 -0.17)"/><path class="cls-1" d="M4.14,43.76a.74.74,0,0,0-.73.74v1.92a.73.73,0,1,0,1.46,0V44.5A.73.73,0,0,0,4.14,43.76Z" transform="translate(-0.36 -0.17)"/><path class="cls-1" d="M46.1,40.9a.74.74,0,0,0-.73.74v2.09a.74.74,0,1,0,1.47,0V41.64A.74.74,0,0,0,46.1,40.9Z" transform="translate(-0.36 -0.17)"/><path class="cls-1" d="M44,14.42H35a.74.74,0,0,0,0,1.48H44a.74.74,0,0,0,0-1.48Z" transform="translate(-0.36 -0.17)"/><path class="cls-1" d="M46.74,17.53H40.3a.74.74,0,0,0,0,1.48h6.44a.74.74,0,0,0,0-1.48Z" transform="translate(-0.36 -0.17)"/><path class="cls-1" d="M13.53,5.69H7.09a.74.74,0,0,0,0,1.48h6.44a.74.74,0,0,0,0-1.48Z" transform="translate(-0.36 -0.17)"/><path class="cls-1" d="M9.87,8.16H3.44a.74.74,0,0,0,0,1.48H9.87a.74.74,0,0,0,0-1.48Z" transform="translate(-0.36 -0.17)"/></svg>